HIERARCHY
ROOT reference
{
	OFFSET 14.961813 0.000000 88.146797
	CHANNELS 6 Xposition Yposition Zposition Xrotation Yrotation Zrotation
	JOINT root
	{
		OFFSET 1.340508 87.682404 -0.922951
		CHANNELS 3 Xrotation Yrotation Zrotation
		JOINT Hips
		{
			OFFSET 0.000000 0.000000 0.000000
			CHANNELS 3 Xrotation Yrotation Zrotation
			JOINT Spine
			{
				OFFSET 0.022438 -0.105400 0.012428
				CHANNELS 3 Xrotation Yrotation Zrotation
				JOINT Spine1
				{
					OFFSET -5.776710 16.961205 -4.842392
					CHANNELS 3 Xrotation Yrotation Zrotation
					JOINT Spine2
					{
						OFFSET -6.195212 16.115295 -6.818909
						CHANNELS 3 Xrotation Yrotation Zrotation
						JOINT Neck
						{
							OFFSET -8.894081 13.577805 -9.002388
							CHANNELS 3 Xrotation Yrotation Zrotation
							JOINT Head
							{
								OFFSET -5.687680 7.200317 -6.985439
								CHANNELS 3 Xrotation Yrotation Zrotation
								End Site
								{
									OFFSET 0.000000 0.100006 0.000000
								}
							}
						}
						JOINT RightShoulder
						{
							OFFSET -7.140662 12.690704 -12.069099
							CHANNELS 3 Xrotation Yrotation Zrotation
							JOINT RightArm
							{
								OFFSET 6.468368 -6.459282 -13.230400
								CHANNELS 3 Xrotation Yrotation Zrotation
								JOINT RightForearm
								{
									OFFSET -3.230484 -13.450996 -25.948000
									CHANNELS 3 Xrotation Yrotation Zrotation
									JOINT RightHand
									{
										OFFSET -14.462502 -2.094818 -20.195297
										CHANNELS 3 Xrotation Yrotation Zrotation
										End Site
										{
											OFFSET 0.000000 0.099998 0.000000
										}
									}
								}
							}
						}
						JOINT LeftShoulder
						{
							OFFSET -10.656801 14.450806 -5.942657
							CHANNELS 3 Xrotation Yrotation Zrotation
							JOINT LeftArm
							{
								OFFSET -6.973288 3.715912 14.006096
								CHANNELS 3 Xrotation Yrotation Zrotation
								JOINT LeftForearm
								{
									OFFSET 7.161782 -11.949501 25.895599
									CHANNELS 3 Xrotation Yrotation Zrotation
									JOINT LeftHand
									{
										OFFSET -12.904401 -19.593300 -8.424828
										CHANNELS 3 Xrotation Yrotation Zrotation
										End Site
										{
											OFFSET 0.000000 0.099998 0.000000
										}
									}
								}
							}
						}
					}
				}
			}
			JOINT RightUpLeg
			{
				OFFSET 4.542200 -0.222000 -8.407043
				CHANNELS 3 Xrotation Yrotation Zrotation
				JOINT RightLeg
				{
					OFFSET -10.034202 -37.996601 -21.972099
					CHANNELS 3 Xrotation Yrotation Zrotation
					JOINT RightFoot
					{
						OFFSET 2.891760 -41.000999 2.475040
						CHANNELS 3 Xrotation Yrotation Zrotation
						JOINT RightToe
						{
							OFFSET -4.983984 -7.346300 -15.662998
							CHANNELS 3 Xrotation Yrotation Zrotation
							End Site
							{
								OFFSET 0.000000 0.100000 0.000000
							}
						}
					}
				}
			}
			JOINT LeftUpLeg
			{
				OFFSET -4.542196 0.222008 8.407021
				CHANNELS 3 Xrotation Yrotation Zrotation
				JOINT LeftLeg
				{
					OFFSET -10.129198 -41.627899 13.846199
					CHANNELS 3 Xrotation Yrotation Zrotation
					JOINT LeftFoot
					{
						OFFSET 9.910692 -37.453999 13.948097
						CHANNELS 3 Xrotation Yrotation Zrotation
						JOINT LeftToe
						{
							OFFSET -16.055000 -8.146780 -0.070290
							CHANNELS 3 Xrotation Yrotation Zrotation
							End Site
							{
								OFFSET 0.000000 0.100000 0.000000
							}
						}
					}
				}
			}
		}
	}
}
MOTION
Frames: 7
Frame Time: 0.041667
6.367424 -0.000000 40.988998 0.000000 0.000000 0.000000 0.366288 -5.462235 -1.541620 0.849321 0.279095 0.450116 0.450022 0.941520 0.092634 0.371635 1.705847 -0.175629 0.141430 1.152138 -0.280735 -0.697313 0.784713 0.787600 -1.833222 1.127090 1.113804 0.292347 -0.414277 0.284504 -3.029398 3.038842 0.109426 -0.295829 -0.424094 0.255353 0.502605 -0.175435 0.317365 0.075433 -0.560692 0.213710 -1.877608 1.193581 1.941841 -0.597636 0.267324 0.290560 0.515482 0.503267 0.140010 -10.695531 2.643542 5.578152 -28.810715 -4.887852 14.413443 -11.544644 12.854405 -22.039834 33.610692 6.265257 5.802194 31.175336 2.344946 -8.479153 -1.231480 3.775803 11.085168 -20.289135 1.865730 -5.431529 -2.816677 -0.060461 0.666350 
6.634626 -0.000000 43.073502 0.000000 0.000000 0.000000 0.215581 -4.989745 -1.382436 0.713727 0.234392 0.378442 0.537051 0.993661 0.079020 0.502752 1.735719 -0.191567 0.228299 1.179196 -0.295153 -0.612966 0.706317 0.823397 -1.695389 0.976805 1.203445 0.423081 -0.452270 0.355076 -3.023050 2.960206 0.139641 -0.409327 -0.587880 0.353167 0.423482 -0.214747 0.199436 0.147978 -0.539569 0.246789 -2.160905 1.218929 2.120218 -0.479203 0.214630 0.232793 0.536973 0.539314 0.159403 -14.159424 4.915842 6.739353 -23.008464 -3.305754 11.683881 -6.884367 10.799227 -22.565038 39.190956 9.138401 0.683853 32.237663 2.164310 -8.911679 -1.148187 3.575922 10.477363 -19.494707 1.436285 -3.898591 -2.643784 -0.055807 0.625535 
7.397873 -0.000000 46.867203 0.000000 0.000000 0.000000 0.035064 -4.587657 -1.192969 0.593386 0.195067 0.314769 0.584911 1.052447 0.053238 0.577349 1.771005 -0.225118 0.276460 1.204572 -0.321496 -0.445810 0.665981 0.738526 -1.348491 0.941579 1.151590 0.598087 -0.358298 0.393372 -2.810086 2.710169 0.050023 -0.458748 -0.659384 0.395730 0.436723 -0.184498 0.151648 0.295434 -0.353512 0.269739 -2.375501 1.134738 2.082572 -0.364878 0.163642 0.177129 0.481502 0.433163 0.111745 -16.394711 7.224192 7.806110 -18.707258 -2.324300 9.586748 3.729286 7.478838 -24.561751 27.193602 6.745316 2.833774 33.255443 1.774458 -9.640422 -1.128415 3.529375 10.335752 -17.604575 1.044398 -1.879370 -2.470893 -0.051275 0.584705 
7.979843 0.000000 50.323517 0.000000 0.000000 0.000000 -0.319757 -4.383080 -0.971867 0.568247 0.186673 0.301468 0.644930 1.129989 0.068982 0.654508 1.874851 -0.216175 0.322278 1.280134 -0.325540 -0.327339 0.589649 0.583056 -1.035591 0.863237 0.936241 0.645997 -0.245616 0.369552 -2.440100 2.373811 -0.213306 -0.426687 -0.613001 0.368120 0.529797 -0.139081 0.225441 0.401698 -0.190793 0.277017 -2.333088 1.266549 1.697046 -0.439536 0.196956 0.213475 0.433590 0.349754 0.067650 -17.210386 7.198479 7.467224 -15.875497 -1.768483 8.177598 11.632279 4.083343 -23.246088 16.786313 4.030204 2.614186 33.869221 0.158481 -11.160503 -1.301364 3.926248 11.548248 -13.143398 0.987924 1.767326 -2.298736 -0.046449 0.544059 
8.142084 -0.000000 52.842102 0.000000 0.000000 0.000000 -0.894796 -4.273225 -0.789695 0.709816 0.235264 0.376329 0.724380 1.169731 0.137585 0.741171 2.003559 -0.148625 0.373312 1.378498 -0.292355 -0.287700 0.470533 0.398034 -0.832325 0.712192 0.607926 0.550280 -0.154155 0.292484 -2.008144 2.009956 -0.595345 -0.320414 -0.459523 0.276531 0.667875 -0.099724 0.396613 0.429795 -0.101052 0.264064 -2.041703 1.599710 1.036985 -0.707444 0.316046 0.344170 0.410902 0.320941 0.048746 -16.983479 4.870568 5.779303 -14.231960 -1.479006 7.350686 15.759063 1.776501 -19.580414 11.238991 2.545265 0.107524 33.870000 -2.711371 -13.418922 -1.711416 4.785723 14.221310 -5.455674 1.519711 6.808622 -2.128066 -0.041848 0.503741 
8.694326 0.000000 57.984619 0.000000 0.000000 0.000000 -1.617628 -3.019645 -0.532436 0.950145 0.312333 0.503356 0.822226 0.888523 0.253631 0.881977 1.745969 0.031338 0.485964 1.231525 -0.148455 -0.355727 0.285571 0.302478 -0.852703 0.406793 0.349108 0.333943 -0.146413 0.197504 -1.916305 1.657623 -0.826489 -0.075524 -0.107907 0.065232 0.704703 -0.119351 0.555543 0.262781 -0.085321 0.168341 -1.693699 1.657792 0.302497 -1.179508 0.524082 0.575469 0.407638 0.321961 0.128303 -16.680690 1.265416 2.953417 -11.189952 -1.007783 5.804960 21.320845 0.100201 -13.905191 2.405993 0.710303 -2.919917 31.425417 -8.047839 -18.165117 -2.968349 6.926851 21.236443 17.685148 2.251420 15.337685 -1.794045 -0.034927 0.424735 
9.041616 -0.000000 60.274002 0.000000 0.000000 0.000000 -1.753641 -2.297665 -0.312151 0.956152 0.314784 0.506521 0.858763 0.718191 0.191983 0.954959 1.507141 -0.022630 0.550169 1.070847 -0.163502 -0.360230 0.318091 0.365901 -0.903241 0.445386 0.464798 0.324441 -0.116355 0.181700 -2.197803 1.571602 -0.556016 -0.006039 -0.008633 0.005201 0.613852 -0.136990 0.473647 0.229879 0.013639 0.119467 -1.996433 1.258336 0.463985 -1.106454 0.492051 0.539607 0.398400 0.286561 0.182323 -16.394121 0.951136 2.042390 -9.974311 -0.842985 5.182302 23.188178 -0.327576 -11.725067 -1.342938 0.045433 -3.555382 29.699237 -7.954761 -20.497299 -3.508674 7.688810 23.890996 22.895955 0.790205 14.918009 -1.632133 -0.031118 0.386459 
